<?xml version="1.0" encoding="UTF-8"?>
<svg id="Layer_2" data-name="Layer 2" xmlns="http://www.w3.org/2000/svg" version="1.1" viewBox="0 0 255.8 46.4">
  <defs>
    <style>
      .cls-1 {
        fill: #00ffc2;
      }

      .cls-1, .cls-2 {
        stroke-width: 0px;
      }

      .cls-2 {
        fill: #fff;
      }
    </style>
  </defs>
  <g id="Layer_1-2" data-name="Layer 1-2">
    <g>
      <polygon class="cls-2" points="46.1 0 46.1 18.5 18.5 18.5 18.5 46 0 46 0 0 46.1 0"/>
      <rect class="cls-1" x="27.7" y="27.8" width="18.4" height="18.2"/>
    </g>
    <g>
      <path class="cls-2" d="M85.1,18.5c.6,0,.9.2.9.8v1.8c0,.6-.3.8-.9.8h-7.6v23.3c0,.6-.2.8-.8.8h-2.9c-.6,0-.8-.2-.8-.8v-23.3h-7.6c-.7,0-.9-.2-.9-.8v-1.8c0-.6.2-.8.9-.8h19.8,0Z"/>
      <path class="cls-2" d="M113.2,26c.7,0,.8.2.9.8v1.3c1.4-1,4-2.4,7.9-2.4s6.7,2.2,6.7,5.2v14.4c0,.6-.2.8-.8.8h-2.8c-.6,0-.9-.2-.9-.8v-13.5c0-1.7-.9-2.7-3.5-2.7s-5.4,1.4-6.4,2.1v14.1c0,.6-.2.8-.8.8h-2.8c-.7,0-.9-.2-.9-.8v-18.5c0-.5.2-.8.9-.8h2.5Z"/>
      <path class="cls-2" d="M157.3,31.2c0-3.3,2.8-5.5,9.5-5.5s9.5,2.2,9.5,5.5v9.6c0,3.3-2.8,5.5-9.5,5.5s-9.5-2.2-9.5-5.5v-9.6ZM171.8,31.5c0-1.7-1.4-2.7-5-2.7s-5,1-5,2.7v9c0,1.7,1.4,2.7,5,2.7s5-1,5-2.7v-9Z"/>
      <path class="cls-2" d="M195,26.4v1.9c0,.6-.3.8-.9.8-3.6.2-6.2,1.8-7.3,2.6v13.6c0,.6-.2.8-.9.8h-2.8c-.7,0-.9-.2-.9-.8v-18.5c0-.5.2-.8.9-.8h2.5c.7,0,.9.2.9.8v1.7c1.4-1.1,4.1-2.8,7.5-2.8s.9.2.9.8h0Z"/>
      <path class="cls-2" d="M204,35.8v9.4c0,.6-.2.8-.9.8h-2.9c-.6,0-.9-.2-.9-.8v-25.9c0-.6.2-.8.9-.8h9.6c8.1,0,10.8,2.9,10.8,6.2v4.8c0,3.3-2.6,6.2-10.8,6.2h-5.9ZM204,21.9v10.6h5.9c4.3,0,6.1-1.3,6.1-3.5v-3.5c0-2.2-1.9-3.5-6.1-3.5h-5.9Z"/>
      <path class="cls-2" d="M230.8,45.2c0,.6-.2.8-.9.8h-2.8c-.7,0-.9-.2-.9-.8v-18.4c0-.6.2-.8.9-.8h2.8c.6,0,.9.2.9.8v18.4Z"/>
      <path class="cls-2" d="M255.7,45.3c.3.4.2.8-.5.8h-3c-.6,0-1-.4-1.3-.8l-5.4-6.7-5.2,6.7c-.3.4-.6.8-1.3.8h-2.6c-.7,0-.8-.4-.5-.8l7.4-9.4-7.2-9.1c-.3-.4-.2-.8.5-.8h3c.7,0,1,.4,1.3.8l5.2,6.4,4.9-6.4c.3-.4.7-.8,1.3-.8h2.7c.6,0,.8.4.4.8l-7.2,9.2,7.4,9.3Z"/>
      <path class="cls-2" d="M100.2,41.2c-.2,0-.5.2-.6.4-.4,1.1-1.6,1.8-4.6,1.8s-4.7-1-4.7-2.7v-3.7h12.9c.6,0,.8-.2.8-.7v-4.9c0-3.3-2.3-5.5-8.9-5.5s-9.1,2.2-9.1,5.5v9.6c0,3.3,2.3,5.5,9,5.5s8.6-1.9,9-4.7c0-.3-.2-.5-.4-.5,0,0-3.3,0-3.3,0ZM90.3,31.4c0-1.6,1.1-2.7,4.7-2.7s4.7,1.1,4.7,2.7v2.5h-9.5v-2.5h0Z"/>
      <path class="cls-2" d="M147.9,35.3l-7.1-2.1c-.9-.2-2-.8-2-1.9v-.7c0-1.5,1.5-2.1,4.4-2.1s4.3,1.8,4.4,1.9c.2.2.7.2.7.2h3c.5,0,.5-.3.5-.3,0-2.5-2.3-4.7-8.6-4.7s-8.6,2.5-8.6,5v1.5c0,2,1.9,3.6,3.7,4.1l7.1,2.1c1.6.4,2.5,1,2.5,1.9v1.1c0,1.5-1.9,2.1-4.8,2.1s-4.8-.7-4.8-2.1c0,0,0-.2-.5-.2h-3.2c-.5,0-.4.4-.4.4,0,2.5,2.5,4.8,8.9,4.8s9-2.3,9-4.8v-2.3c0-1.9-1.7-3.2-4.3-4h0Z"/>
      <path class="cls-2" d="M230.8,22.2c0,.5-.2.8-.9.8h-2.8c-.7,0-.9-.2-.9-.8v-3.1c0-.6.2-.8.9-.8h2.8c.6,0,.9.2.9.8v3.1Z"/>
    </g>
  </g>
</svg>