<svg width="5506" height="1001" viewBox="0 0 5506 1001" fill="none" xmlns="http://www.w3.org/2000/svg">
<path d="M991.893 0V398.048H398.048V989.742H0V0H991.893Z" fill="#14191D"/>
<path d="M991.897 598.144H596V989.738H991.897V598.144Z" fill="#00FFC2"/>
<path d="M1831.02 398.048C1843.93 398.048 1850.39 402.352 1850.39 415.261V453.99C1850.39 466.9 1843.93 471.203 1831.02 471.203H1667.5V972.529C1667.5 985.439 1663.2 989.742 1650.29 989.742H1587.89C1574.98 989.742 1570.68 985.439 1570.68 972.529V471.203H1407.16C1392.09 471.203 1387.79 466.9 1387.79 453.99V415.261C1387.79 402.352 1392.09 398.048 1407.16 398.048H1833.17H1831.02Z" fill="#14191D"/>
<path d="M2435.62 559.413C2450.68 559.413 2452.84 563.716 2454.99 576.626V604.597C2485.11 583.081 2541.05 552.958 2624.96 552.958C2708.88 552.958 2769.12 600.293 2769.12 664.842V974.674C2769.12 987.584 2764.82 991.887 2751.91 991.887H2691.66C2678.75 991.887 2672.3 987.584 2672.3 974.674V684.206C2672.3 647.629 2652.94 626.113 2596.99 626.113C2541.05 626.113 2480.81 656.235 2459.29 671.297V974.674C2459.29 987.584 2454.99 991.887 2442.08 991.887H2381.83C2366.77 991.887 2362.47 987.584 2362.47 974.674V576.626C2362.47 565.868 2366.77 559.413 2381.83 559.413H2435.62Z" fill="#14191D"/>
<path d="M3384.48 671.297C3384.48 600.293 3444.73 552.958 3588.89 552.958C3733.04 552.958 3793.29 600.293 3793.29 671.297V877.852C3793.29 948.855 3733.04 996.19 3588.89 996.19C3444.73 996.19 3384.48 948.855 3384.48 877.852V671.297ZM3696.47 677.752C3696.47 641.174 3666.34 619.658 3588.89 619.658C3511.43 619.658 3481.31 641.174 3481.31 677.752V871.397C3481.31 907.974 3511.43 929.49 3588.89 929.49C3666.34 929.49 3696.47 907.974 3696.47 871.397V677.752Z" fill="#14191D"/>
<path d="M4195.65 568.019V608.9C4195.65 621.81 4189.2 626.113 4176.29 626.113C4098.83 630.416 4042.89 664.842 4019.22 682.055V974.674C4019.22 987.584 4014.92 991.887 3999.85 991.887H3939.61C3924.55 991.887 3920.24 987.584 3920.24 974.674V576.626C3920.24 565.868 3924.55 559.413 3939.61 559.413H3993.4C4008.46 559.413 4012.76 563.716 4012.76 576.626V613.203C4042.89 589.535 4100.98 552.958 4174.13 552.958C4247.29 552.958 4193.5 557.261 4193.5 570.171L4195.65 568.019Z" fill="#14191D"/>
<path d="M4389.29 770.277V972.529C4389.29 985.439 4384.98 989.742 4369.92 989.742H4307.53C4294.62 989.742 4288.16 985.439 4288.16 972.529V415.261C4288.16 402.352 4292.46 398.048 4307.53 398.048H4514.08C4688.36 398.048 4746.45 460.445 4746.45 531.448V634.726C4746.45 705.729 4690.51 768.126 4514.08 768.126H4387.14L4389.29 770.277ZM4389.29 471.203V699.274H4516.23C4608.75 699.274 4647.48 671.303 4647.48 623.968V548.661C4647.48 501.326 4606.6 473.355 4516.23 473.355H4389.29V471.203Z" fill="#14191D"/>
<path d="M4965.93 972.529C4965.93 985.438 4961.62 989.742 4946.56 989.742H4886.32C4871.26 989.742 4866.95 985.438 4866.95 972.529V576.632C4866.95 563.722 4871.26 559.419 4886.32 559.419H4946.56C4959.47 559.419 4965.93 563.722 4965.93 576.632V972.529Z" fill="#14191D"/>
<path d="M5501.67 974.68C5508.12 983.287 5505.97 991.893 5490.91 991.893H5426.36C5413.45 991.893 5404.85 983.287 5398.39 974.68L5282.2 830.522L5170.32 974.68C5163.86 983.287 5157.41 991.893 5142.35 991.893H5086.41C5071.35 991.893 5069.19 983.287 5075.65 974.68L5234.87 772.429L5079.95 576.632C5073.5 568.025 5075.65 559.419 5090.71 559.419H5155.26C5170.32 559.419 5176.77 568.025 5183.23 576.632L5295.11 714.335L5400.54 576.632C5407 568.025 5415.6 559.419 5428.51 559.419H5486.61C5499.52 559.419 5503.82 568.025 5495.21 576.632L5340.3 774.58L5499.52 974.68H5501.67Z" fill="#14191D"/>
<path d="M2155.92 886.462C2151.61 886.462 2145.16 890.766 2143.01 895.069C2134.4 918.737 2108.58 933.798 2044.03 933.798C1979.48 933.798 1942.91 912.282 1942.91 875.704V796.095H2220.47C2233.37 796.095 2237.68 791.791 2237.68 781.033V675.604C2237.68 604.601 2188.19 557.266 2046.18 557.266C1904.18 557.266 1850.39 604.601 1850.39 675.604V882.159C1850.39 953.162 1899.87 1000.5 2044.03 1000.5C2188.19 1000.5 2229.07 959.617 2237.68 899.372C2237.68 892.917 2233.37 888.614 2229.07 888.614H2158.07L2155.92 886.462ZM1942.91 675.604C1942.91 641.179 1966.57 617.511 2044.03 617.511C2121.49 617.511 2145.16 641.179 2145.16 675.604V729.395H1940.76V675.604H1942.91Z" fill="#14191D"/>
<path d="M3182.23 759.511L3029.46 714.327C3010.1 710.024 2986.43 697.114 2986.43 673.446V658.385C2986.43 626.111 3018.7 613.201 3081.1 613.201C3143.5 613.201 3173.62 651.93 3175.77 654.082C3180.08 658.385 3190.83 658.385 3190.83 658.385H3255.38C3266.14 658.385 3266.14 651.93 3266.14 651.93C3266.14 598.14 3216.65 550.804 3081.1 550.804C2945.55 550.804 2896.06 604.595 2896.06 658.385V690.659C2896.06 733.691 2936.94 768.117 2975.67 778.875L3128.44 824.059C3162.86 832.665 3182.23 845.575 3182.23 864.94V888.607C3182.23 920.882 3141.35 933.791 3078.95 933.791C3016.55 933.791 2975.67 918.73 2975.67 888.607C2975.67 888.607 2975.67 884.304 2964.91 884.304H2896.06C2885.3 884.304 2887.46 892.911 2887.46 892.911C2887.46 946.701 2941.25 996.188 3078.95 996.188C3216.65 996.188 3272.59 946.701 3272.59 892.911V843.424C3272.59 802.543 3236.02 774.572 3180.08 757.359L3182.23 759.511Z" fill="#14191D"/>
<path d="M4965.93 477.654C4965.93 488.412 4961.62 494.867 4946.56 494.867H4886.32C4871.26 494.867 4866.95 490.563 4866.95 477.654V410.954C4866.95 398.044 4871.26 393.741 4886.32 393.741H4946.56C4959.47 393.741 4965.93 398.044 4965.93 410.954V477.654Z" fill="#14191D"/>
</svg>
